<svg width="44" height="44" viewBox="0 0 44 44" fill="none" xmlns="http://www.w3.org/2000/svg">
<path d="M20.1682 40.3334C17.2215 40.3334 14.3183 39.6231 11.7044 38.2627C9.09058 36.9024 6.84314 34.932 5.15254 32.5185C3.46193 30.1051 2.37798 27.3197 1.99251 24.3984C1.60704 21.477 1.93141 18.5058 2.93815 15.7364C3.94489 12.9671 5.60432 10.4812 7.77586 8.4894C9.94739 6.4976 12.567 5.05857 15.4129 4.29424C18.2587 3.52991 21.2468 3.4628 24.124 4.0986C27.0013 4.73439 29.6829 6.05436 31.9417 7.94666C32.1295 8.10029 32.285 8.28969 32.3992 8.50387C32.5133 8.71805 32.5837 8.95276 32.6064 9.19438C32.6291 9.436 32.6036 9.67972 32.5314 9.91142C32.4592 10.1431 32.3417 10.3582 32.1858 10.5441C32.0298 10.73 31.8385 10.8831 31.6229 10.9946C31.4073 11.106 31.1717 11.1735 30.9298 11.1932C30.6879 11.2129 30.4446 11.1843 30.2138 11.1092C29.983 11.0341 29.7695 10.914 29.5855 10.7557C27.0668 8.6476 23.9134 7.44603 20.6305 7.34352C17.3476 7.24101 14.1254 8.2435 11.4801 10.1904C8.83482 12.1372 6.91965 14.9157 6.0415 18.0806C5.16334 21.2455 5.37304 24.6136 6.63699 27.6451C7.90093 30.6766 10.146 33.1961 13.0123 34.7998C15.8786 36.4035 19.2004 36.9986 22.4452 36.4897C25.69 35.9807 28.67 34.3973 30.9077 31.9931C33.1455 29.5888 34.5113 26.503 34.7865 23.2301C34.8036 22.9891 34.8688 22.7541 34.9781 22.5387C35.0874 22.3233 35.2386 22.1319 35.423 21.9758C35.6073 21.8197 35.8209 21.702 36.0513 21.6296C36.2818 21.5572 36.5243 21.5315 36.7648 21.5542C37.0046 21.5742 37.2382 21.6412 37.4521 21.7514C37.6661 21.8616 37.8562 22.0129 38.0116 22.1966C38.1671 22.3803 38.2848 22.5929 38.3581 22.8221C38.4314 23.0513 38.4589 23.2927 38.4388 23.5326C38.0332 28.1055 35.9353 32.3624 32.5559 35.4699C29.1766 38.5774 24.7591 40.3118 20.1682 40.3334ZM24.3003 27.7901L41.6292 10.4629C41.8043 10.2938 41.944 10.0915 42.0401 9.86782C42.1361 9.64415 42.1867 9.40358 42.1888 9.16015C42.1909 8.91672 42.1446 8.67531 42.0524 8.45C41.9602 8.22469 41.8241 8.01999 41.6519 7.84786C41.4798 7.67572 41.2751 7.53959 41.0498 7.44741C40.8245 7.35523 40.5831 7.30884 40.3396 7.31096C40.0962 7.31307 39.8556 7.36365 39.632 7.45973C39.4083 7.55581 39.206 7.69548 39.0369 7.87058L21.7078 25.1976C21.5284 25.379 21.3127 25.5205 21.0749 25.6127C20.837 25.705 20.5823 25.7459 20.3275 25.7329C20.0816 25.7248 19.84 25.666 19.6179 25.5602C19.3958 25.4544 19.1979 25.3039 19.0367 25.118L14.2742 19.0361C13.9721 18.6602 13.534 18.4185 13.0549 18.3634C12.5757 18.3082 12.0942 18.4441 11.7146 18.7416C11.3349 19.039 11.0878 19.4741 11.0267 19.9525C10.9656 20.4309 11.0955 20.9141 11.3882 21.2974L16.1845 27.4222C16.6743 28.0088 17.2808 28.4873 17.9653 28.8271C18.6499 29.1669 19.3976 29.3607 20.161 29.3961C20.2434 29.3997 20.3257 29.4014 20.408 29.4014C21.8676 29.4008 23.2674 28.8213 24.3003 27.7901Z" fill="#1EC43A"/>
</svg>
