<svg width="24" height="25" viewBox="0 0 24 25" fill="none" xmlns="http://www.w3.org/2000/svg">
<path d="M12 3.11133C6.76 3.11133 2.5 7.37133 2.5 12.6113C2.5 17.8513 6.76 22.1113 12 22.1113C17.24 22.1113 21.5 17.8513 21.5 12.6113C21.5 7.37133 17.24 3.11133 12 3.11133ZM16 13.6113H12C11.45 13.6113 11 13.1613 11 12.6113V7.61133C11 7.06133 11.45 6.61133 12 6.61133C12.55 6.61133 13 7.06133 13 7.61133V11.6113H16C16.55 11.6113 17 12.0613 17 12.6113C17 13.1613 16.55 13.6113 16 13.6113Z" fill="#29496C"/>
</svg>
