<svg width="12" height="12" viewBox="0 0 12 12" fill="none" xmlns="http://www.w3.org/2000/svg">
<g clip-path="url(#clip0_313_1605)">
<path d="M11.9201 11.444C11.909 11.431 11.8968 11.4188 11.8838 11.4077L6.47023 5.99081L11.8871 0.577219C12.0175 0.446903 12.0175 0.235621 11.8871 0.105305C11.7568 -0.0250106 11.5455 -0.0250106 11.4152 0.105305L6.00163 5.52221L0.588064 0.105305C0.457748 -0.0250106 0.246467 -0.0250106 0.116151 0.105305C-0.014165 0.235621 -0.014165 0.446903 0.116151 0.577219L5.53306 5.99081L0.116174 11.4044C-0.0232312 11.5238 -0.0394711 11.7336 0.0799092 11.873C0.19929 12.0124 0.409076 12.0286 0.548481 11.9092C0.561473 11.8981 0.5736 11.886 0.584746 11.873L6.00165 6.45938L11.4152 11.8763C11.5346 12.0157 11.7444 12.0319 11.8838 11.9126C12.0232 11.7931 12.0395 11.5834 11.9201 11.444Z" fill="#BBBBBB"/>
</g>
<defs>
<clipPath id="clip0_313_1605">
<rect width="12" height="12" fill="white"/>
</clipPath>
</defs>
</svg>
