<svg width="26" height="26" viewBox="0 0 26 26" fill="none" xmlns="http://www.w3.org/2000/svg">
<g clip-path="url(#clip0_359_306)">
<path d="M16.8657 0.584492C15.6187 0.196676 14.3181 0 13 0C9.52758 0 6.263 1.35225 3.80758 3.80758C1.35225 6.263 0 9.52758 0 13C0 15.6051 0.767812 18.1185 2.22041 20.2687C3.63771 22.3666 5.61544 23.9951 7.93965 24.9782C7.9882 24.9987 8.03857 25.0084 8.08813 25.0084C8.23687 25.0084 8.3782 24.9209 8.43979 24.7754C8.52191 24.5813 8.43111 24.3574 8.23697 24.2753C6.04906 23.3499 4.18727 21.8167 2.85279 19.8415C1.48581 17.8179 0.763191 15.4522 0.763191 13C0.763191 9.73147 2.03602 6.65849 4.34728 4.34728C6.65849 2.03607 9.73147 0.763242 13 0.763242C14.2411 0.763242 15.4655 0.948289 16.639 1.3133C16.8401 1.37582 17.0541 1.26354 17.1167 1.06224C17.1793 0.860996 17.0669 0.647105 16.8657 0.584492Z" fill="#7A7A7A"/>
<path d="M23.9202 5.94423C22.5951 3.8976 20.7315 2.26813 18.5306 1.23199C18.3399 1.14226 18.1126 1.22396 18.0228 1.4147C17.933 1.60538 18.0148 1.83273 18.2055 1.92251C20.2773 2.89787 22.0319 4.43202 23.2795 6.35896C24.5598 8.33659 25.2366 10.6331 25.2366 13.0001C25.2366 16.2686 23.9637 19.3415 21.6525 21.6528C19.3414 23.964 16.2684 25.2368 12.9999 25.2368C11.889 25.2368 10.7882 25.0881 9.72813 24.7947C9.5251 24.7387 9.31482 24.8576 9.25855 25.0607C9.20234 25.2638 9.32142 25.474 9.52454 25.5303C10.651 25.842 11.8203 26.0001 12.9999 26.0001C16.4723 26.0001 19.7369 24.6479 22.1922 22.1925C24.6476 19.7371 25.9999 16.4725 25.9999 13.0001C25.9999 10.4856 25.2807 8.04571 23.9202 5.94423Z" fill="#7A7A7A"/>
<path d="M16.7311 16.1913L13.5397 13L16.731 9.80862C16.88 9.65963 16.88 9.41796 16.731 9.26897C16.582 9.11998 16.3403 9.11998 16.1913 9.26897L13 12.4603L9.80866 9.26902C9.65967 9.12003 9.418 9.12003 9.26901 9.26902C9.11997 9.41801 9.11997 9.65968 9.26901 9.80867L12.4603 13L9.26901 16.1913C9.11997 16.3404 9.11997 16.5819 9.26901 16.731C9.3435 16.8055 9.44116 16.8427 9.53886 16.8427C9.63656 16.8427 9.73417 16.8055 9.80871 16.731L13 13.5396L16.1914 16.731C16.2659 16.8055 16.3635 16.8427 16.4612 16.8427C16.5589 16.8427 16.6565 16.8055 16.7311 16.731C16.8801 16.5819 16.8801 16.3403 16.7311 16.1913Z" fill="#7A7A7A"/>
</g>
<defs>
<clipPath id="clip0_359_306">
<rect width="26" height="26" fill="white"/>
</clipPath>
</defs>
</svg>
