<svg width="50" height="50" viewBox="0 0 50 50" fill="none" xmlns="http://www.w3.org/2000/svg">
<rect width="50" height="50" rx="25" fill="#29496C"/>
<g clip-path="url(#clip0_374_218)">
<path d="M22.5712 32.3092L20.2822 32.9225L21.9432 39.1213C22.1123 39.7524 22.7632 40.1282 23.3943 39.9591C23.7 39.8772 23.9556 39.6811 24.1138 39.4071C24.272 39.133 24.314 38.8137 24.2321 38.508L22.5712 32.3092Z" fill="white"/>
<path d="M26.7677 38.508C26.6857 38.8138 26.7278 39.133 26.886 39.4071C27.0443 39.6812 27.2998 39.8772 27.6055 39.9592C27.9113 40.041 28.2305 39.999 28.5046 39.8408C28.7786 39.6826 28.9747 39.4271 29.0566 39.1214L30.7176 32.9226L28.4287 32.3093L26.7677 38.508Z" fill="white"/>
<path d="M39.9454 12.3821C39.0422 10.8177 37.5839 9.69874 35.839 9.23118C35.2552 9.07472 34.668 9 34.0903 9C31.1045 9 28.3651 10.9952 27.5565 14.0131L26.4402 18.1792L28.1471 24.5493L30.969 14.0178L32.7237 14.4879L29.3998 26.8929L28.7268 26.7126L28.9369 27.4965C29.2199 28.5528 28.8998 29.6309 28.189 30.3645L35.4311 32.3051C36.0627 32.4742 36.7132 32.0983 36.8822 31.4673L40.621 17.5138C41.0885 15.7689 40.8486 13.9465 39.9454 12.3821ZM34.3394 28.2165L32.5847 27.7464L35.9086 15.3414L37.6633 15.8115L34.3394 28.2165Z" fill="white"/>
<path d="M14.6318 19.9477C14.8009 20.5787 15.4518 20.9545 16.0829 20.7855C16.7139 20.6164 17.0898 19.9654 16.9207 19.3344L16.0957 16.2557L23.5117 14.2686L23.4433 14.0132C22.6348 10.9954 19.8951 9 16.9095 9C16.3317 9 15.7449 9.07466 15.1608 9.23118C13.416 9.69874 11.9577 10.8177 11.0544 12.3821C10.1512 13.9464 9.91134 15.7689 10.3788 17.5137L10.4473 17.7691L13.8068 16.869L14.6318 19.9477Z" fill="white"/>
<path d="M27.1822 27.9666L23.982 16.0232L18.3205 17.5402L18.6753 18.8643C19.1037 20.4628 18.1516 22.1118 16.5531 22.5402C16.2939 22.6096 16.0334 22.6427 15.777 22.6427C14.4519 22.6428 13.2362 21.7573 12.8773 20.4179L12.5225 19.0938L10.9175 19.5238L14.1177 31.4673C14.1997 31.773 14.3957 32.0284 14.6698 32.1867C14.9438 32.3449 15.263 32.3869 15.5688 32.305L26.3444 29.4177C26.9755 29.2486 27.3513 28.5977 27.1822 27.9666Z" fill="white"/>
</g>
<defs>
<clipPath id="clip0_374_218">
<rect width="31" height="31" fill="white" transform="translate(10 9)"/>
</clipPath>
</defs>
</svg>
