<svg width="46" height="46" viewBox="0 0 46 46" fill="none" xmlns="http://www.w3.org/2000/svg">
<rect y="0.00012207" width="46" height="46" rx="23" fill="#29496C"/>
<g clip-path="url(#clip0_369_192)">
<path d="M22.5002 12.3884H30.1237C30.5623 12.3884 30.9178 12.0328 30.9178 11.5942V9.79424C30.9178 9.35568 30.5623 9.00012 30.1237 9.00012H22.5002C22.0616 9.00012 21.7061 9.35568 21.7061 9.79424V11.5942C21.7061 12.0328 22.0616 12.3884 22.5002 12.3884Z" fill="white"/>
<path d="M24.6862 18.6142C25.7599 18.9377 26.9954 18.9573 28.1353 18.6142C29.2201 18.2865 30.4012 18.2119 31.531 18.3919C31.1313 17.5676 30.6474 16.7417 30.0708 15.8994V13.9766H22.5532V15.8994C21.9703 16.7512 21.4774 17.5914 21.0703 18.4305C22.2247 18.2111 23.4912 18.2533 24.6862 18.6142Z" fill="white"/>
<path d="M22.9237 21.8119H19.8923C20.0046 21.2889 20.1475 20.7706 20.3212 20.2549C21.0642 20.0551 21.5889 19.8849 22.5023 19.8849C24.1377 19.8849 24.5033 20.4524 26.4105 20.4524C27.1596 20.4524 27.8939 20.3455 28.5943 20.1348C29.6452 19.8176 30.8109 19.8007 31.8772 20.0876L32.2726 20.194C32.6273 21.2423 32.856 22.3016 32.9635 23.4002H25.17C24.84 22.4658 23.9511 21.8119 22.9237 21.8119Z" fill="white"/>
<path d="M33.0354 31.0237H24.2837L25.2118 24.9884H33.0338L33.0354 31.0237Z" fill="white"/>
<path d="M23.5083 36.0002H32.2413C32.6797 36.0002 33.0354 35.6444 33.0354 35.2061V32.6119H24.0391L23.5083 36.0002Z" fill="white"/>
<path d="M19.5699 28.4957C18.4661 28.9366 17.23 28.9419 16.1129 28.4957C15.4345 28.2237 14.6639 28.1987 13.9449 28.4544L12.6802 28.9049L13.6681 35.3267C13.7279 35.7142 14.0614 36.0001 14.4532 36.0001H21.2296C21.6214 36.0001 21.9549 35.7142 22.0148 35.3267L23.0026 28.9049L21.7374 28.4539C21.0338 28.2029 20.264 28.2177 19.5699 28.4957Z" fill="white"/>
<path d="M22.9237 23.4001H12.759C12.2713 23.4001 11.9006 23.8355 11.9739 24.315L12.4339 27.3061C13.5247 26.9178 14.8733 26.2873 16.7031 27.0213C17.4345 27.313 18.2481 27.3132 18.9806 27.0208C20.0336 26.5994 21.202 26.5771 22.2704 26.9578L23.2487 27.3061L23.7088 24.315C23.7822 23.8348 23.4107 23.4001 22.9237 23.4001Z" fill="white"/>
</g>
<defs>
<clipPath id="clip0_369_192">
<rect width="21" height="27" fill="white" transform="translate(12 9.00012)"/>
</clipPath>
</defs>
</svg>
