<svg width="46" height="46" viewBox="0 0 46 46" fill="none" xmlns="http://www.w3.org/2000/svg">
<rect width="46" height="46" rx="23" fill="#29496C"/>
<g clip-path="url(#clip0_369_210)">
<path d="M35.9386 11.8978C35.8033 11.4892 35.4744 11.1788 35.0552 11.0727C33.6331 10.7092 30.8369 10.2344 28.0857 11.1338C24.9949 12.1392 22.9017 14.5349 22.1005 15.5882C18.1846 11.9137 13.5365 10.9295 13.4649 10.9162C13.1757 10.8579 12.8971 11.0436 12.8387 11.3301C12.783 11.6193 12.9688 11.8978 13.2552 11.9562C13.3268 11.9694 18.4127 13.0466 22.2304 17.2224C22.0872 18.7664 21.4398 20.5519 19.4952 21.7379C19.8692 21.8891 20.2301 22.0748 20.575 22.2897C22.1482 21.1303 22.8407 19.6101 23.1325 18.3048C23.817 19.2016 24.4351 20.2177 24.9418 21.3691C25.292 21.2816 25.6529 21.2231 26.0216 21.1914C25.4035 19.7242 24.6181 18.4588 23.7453 17.3657C24.5253 17.5249 25.5175 17.6655 26.6079 17.6655C27.6877 17.6655 28.8656 17.5302 30.0436 17.1455C32.8 16.2488 34.7766 14.2166 35.7104 13.0864C35.9864 12.7521 36.0713 12.3091 35.9386 11.8978Z" fill="white"/>
<path d="M26.722 22.2181C23.0927 22.2181 20.1399 25.1709 20.1399 28.8003C20.1399 32.4296 23.0927 35.3824 26.722 35.3824C30.3513 35.3824 33.3041 32.4296 33.3041 28.8003C33.3041 25.1709 30.3513 22.2181 26.722 22.2181ZM26.7204 33.1114C26.4273 33.1114 26.1898 32.8738 26.1898 32.5808C26.1898 32.2877 26.4273 32.0502 26.7204 32.0502C28.5123 32.0502 29.9702 30.5923 29.9702 28.8003C29.9702 28.5072 30.2078 28.2697 30.5008 28.2697C30.7939 28.2697 31.0315 28.5072 31.0315 28.8003C31.0315 31.1774 29.0975 33.1114 26.7204 33.1114Z" fill="white"/>
<path d="M16.5822 33.1114C16.2903 33.1114 16.0516 32.8727 16.0516 32.5808C16.0516 32.289 16.2903 32.0502 16.5822 32.0502C17.7124 32.0502 18.7099 31.4692 19.2935 30.591C19.1529 30.0179 19.0786 29.4157 19.0786 28.8003C19.0786 26.9113 19.7658 25.1815 20.9066 23.847C19.7499 22.831 18.235 22.2181 16.5822 22.2181C12.9528 22.2181 10 25.1709 10 28.8003C10 32.4296 12.9528 35.3824 16.5821 35.3824C18.2349 35.3824 19.7498 34.7695 20.9065 33.7535C20.4051 33.1671 19.9912 32.5065 19.6862 31.7876C18.9035 32.602 17.7998 33.1114 16.5822 33.1114Z" fill="white"/>
</g>
<defs>
<clipPath id="clip0_369_210">
<rect width="26" height="26" fill="white" transform="translate(10 10)"/>
</clipPath>
</defs>
</svg>
