<svg width="46" height="46" viewBox="0 0 46 46" fill="none" xmlns="http://www.w3.org/2000/svg">
<rect width="46" height="46" rx="23" fill="#29496C"/>
<path d="M32.948 20.021C32.8538 19.7924 32.6936 19.597 32.4879 19.4597C32.2822 19.3224 32.0403 19.2494 31.793 19.25H26.493L24.149 13.776C24.0526 13.5509 23.8923 13.359 23.6879 13.2242C23.4834 13.0893 23.2439 13.0175 22.999 13.0175C22.7542 13.0175 22.5146 13.0893 22.3102 13.2242C22.1058 13.359 21.9454 13.5509 21.849 13.776L19.506 19.25H14.206C13.9588 19.25 13.7171 19.3233 13.5115 19.4606C13.3059 19.5979 13.1456 19.7932 13.051 20.0216C12.9563 20.2501 12.9316 20.5014 12.9798 20.7439C13.0281 20.9864 13.1472 21.2092 13.322 21.384L17.169 25.23L15.557 31.682C15.4977 31.9196 15.5095 32.1695 15.591 32.4005C15.6725 32.6314 15.82 32.8334 16.0152 32.9813C16.2105 33.1291 16.4449 33.2164 16.6893 33.2321C16.9337 33.2479 17.1774 33.1915 17.39 33.07L23 29.864L28.611 33.071C28.8238 33.1923 29.0674 33.2485 29.3118 33.2326C29.5562 33.2166 29.7904 33.1293 29.9856 32.9813C30.1807 32.8333 30.3281 32.6313 30.4094 32.4004C30.4908 32.1694 30.5024 31.9196 30.443 31.682L28.831 25.23L32.677 21.384C32.8525 21.2094 32.9719 20.9866 33.0202 20.7438C33.0685 20.5011 33.0434 20.2494 32.948 20.021Z" fill="white"/>
</svg>
