<svg width="36" height="59" viewBox="0 0 36 59" fill="none" xmlns="http://www.w3.org/2000/svg">
<path d="M2.60376 24.2094C0.941783 22.4366 0 20.1099 0 17.6723C0 13.739 2.49296 10.138 6.1493 8.75305C6.70329 8.53146 7.25728 8.36526 7.86667 8.25447L8.19907 8.19906L8.25446 7.86667C8.36526 7.25728 8.53146 6.70329 8.75306 6.1493C10.138 2.43756 13.739 0 17.6723 0C21.384 0 24.7634 2.16057 26.3146 5.48451C26.1484 5.48451 25.9822 5.48451 25.816 5.48451C24.9296 5.48451 24.0986 5.59531 23.2122 5.76151C21.938 3.93334 19.9437 2.82535 17.6723 2.82535C15.3455 2.82535 13.185 4.04413 11.9662 6.0385C11.6338 6.59249 11.3568 7.14649 11.1906 7.75588L11.0798 8.19906L11.523 8.30987C12.077 8.42067 12.5756 8.58686 13.0742 8.80846C14.1268 9.25165 15.0132 9.80564 15.8441 10.5258C15.2902 11.3014 14.847 12.077 14.4592 12.9634C14.4592 13.0188 14.4038 13.0742 14.4038 13.1296C13.739 12.4094 12.908 11.8 11.9662 11.4122C11.1906 11.0798 10.3596 10.9136 9.47325 10.9136C8.86386 10.9136 8.30986 10.969 7.70047 11.1352C7.09108 11.3014 6.53709 11.523 5.9831 11.9108C3.98874 13.1296 2.76995 15.2901 2.76995 17.6169C2.76995 19.3343 3.43475 20.9963 4.59813 22.215C3.82254 22.7136 3.10235 23.3784 2.60376 24.2094Z" fill="#29496C"/>
<path d="M17.6169 59.0002C16.7305 59.0002 15.9549 58.557 15.5117 57.7814L4.81967 28.0321C4.48728 27.4781 4.43188 26.8133 4.59808 26.2039C4.65348 25.9823 4.70887 25.7607 4.81967 25.5945C5.26286 24.8189 6.03845 24.3757 6.92484 24.3757H25.7605C27.3671 24.3757 28.8629 23.8217 30.0816 22.7692C31.5774 21.495 32.4084 19.6668 32.4084 17.6724C32.4084 15.3457 31.1896 13.1851 29.1953 11.9663C28.6413 11.6339 28.0873 11.3569 27.4779 11.1907C26.9239 11.0246 26.3145 10.9691 25.7051 10.9691C24.8187 10.9691 23.9878 11.1353 23.2122 11.4677C21.9934 11.9663 20.9962 12.7419 20.276 13.7945C19.999 14.1823 19.7774 14.5701 19.6112 15.0133C19.445 15.0687 19.3342 15.1241 19.168 15.1795C18.6694 15.2903 18.1709 15.4011 17.6169 15.4011C17.2291 15.4011 16.8967 15.3457 16.5089 15.2903C16.6197 14.9025 16.7305 14.5147 16.8967 14.1269C17.1737 13.4067 17.5615 12.7419 18.0047 12.1325C18.337 11.6893 18.7248 11.2461 19.1126 10.8584C19.999 9.97197 21.0516 9.30718 22.1596 8.86399C22.6582 8.64239 23.2122 8.47619 23.7108 8.36539C24.3755 8.19919 25.0403 8.1438 25.7051 8.1438C26.2591 8.1438 26.8131 8.1992 27.3671 8.31C27.9765 8.4208 28.5305 8.58699 29.0845 8.80859C32.7962 10.1936 35.2338 13.7945 35.2338 17.7278C35.2338 20.3316 34.1258 22.88 32.2422 24.6527C31.799 25.0405 31.3558 25.4283 30.8572 25.7053C29.3061 26.7025 27.5333 27.2011 25.7051 27.2011H7.58962L17.5615 55.7316L26.0375 29.8602C27.3117 29.8048 28.5305 29.5832 29.6939 29.1954L19.6112 57.8368C19.2788 58.557 18.5032 59.0002 17.6169 59.0002Z" fill="#29496C"/>
</svg>
