<svg width="24" height="25" viewBox="0 0 24 25" fill="none" xmlns="http://www.w3.org/2000/svg">
<g clip-path="url(#clip0_333_1424)">
<path d="M12.0001 0.611328C6.90892 0.611328 2.76685 4.7534 2.76685 9.84461C2.76685 14.6569 10.4306 22.9419 11.3044 23.8719L12.0001 24.6113L12.6957 23.8719C13.5697 22.9427 21.2333 14.6569 21.2333 9.84461C21.2337 4.7534 17.0917 0.611328 12.0001 0.611328ZM12.0001 13.6656C9.89345 13.6656 8.1794 11.9515 8.1794 9.84494C8.1794 7.73826 9.89345 6.02428 12.0001 6.02428C14.1071 6.02428 15.8207 7.73833 15.8207 9.84494C15.8207 11.9516 14.1071 13.6656 12.0001 13.6656Z" fill="#29496C"/>
</g>
<defs>
<clipPath id="clip0_333_1424">
<rect width="24" height="24" fill="white" transform="translate(0 0.611328)"/>
</clipPath>
</defs>
</svg>
