<svg width="7" height="14" viewBox="0 0 7 14" fill="none" xmlns="http://www.w3.org/2000/svg">
<path d="M5.51972 0.611328H1.48017C0.692918 0.611328 0.0544434 1.24983 0.0544434 2.03705V12.1856C0.0544434 12.9729 0.692918 13.6113 1.48017 13.6113H5.5197C6.30695 13.6113 6.94542 12.9729 6.94542 12.1856V2.03705C6.94545 1.24983 6.30719 0.611328 5.51972 0.611328ZM4.86865 1.3539C4.9221 1.3539 4.96514 1.39716 4.96514 1.45039C4.96514 1.50384 4.92188 1.54685 4.86865 1.54685C4.8152 1.54685 4.77216 1.50359 4.77216 1.45039C4.77216 1.39716 4.81542 1.3539 4.86865 1.3539ZM4.86865 1.67326C4.9221 1.67326 4.96514 1.71652 4.96514 1.76972C4.96514 1.82295 4.92188 1.86621 4.86865 1.86621C4.8152 1.86621 4.77216 1.82295 4.77216 1.76972C4.77216 1.71652 4.81542 1.67326 4.86865 1.67326ZM2.49245 1.54375H4.52292C4.59469 1.54375 4.65266 1.60172 4.65266 1.67324C4.65266 1.745 4.59469 1.80297 4.52292 1.80297H2.49245C2.42068 1.80297 2.36271 1.745 2.36271 1.67324C2.36271 1.60172 2.42068 1.54375 2.49245 1.54375ZM4.05432 12.2351C4.05432 12.4974 3.84141 12.7103 3.57908 12.7103H3.40086C3.1385 12.7103 2.92562 12.4974 2.92562 12.2351V12.0371C2.92562 11.7747 3.1385 11.5619 3.40086 11.5619H3.57908C3.84141 11.5619 4.05432 11.7747 4.05432 12.0371V12.2351ZM6.2523 10.9478H0.608829V3.40336H6.2523V10.9478Z" fill="#29496C"/>
<path d="M2.6808 1.71317C2.70286 1.71317 2.72073 1.69529 2.72073 1.67323C2.72073 1.65118 2.70286 1.6333 2.6808 1.6333C2.65875 1.6333 2.64087 1.65118 2.64087 1.67323C2.64087 1.69529 2.65875 1.71317 2.6808 1.71317Z" fill="#29496C"/>
<path d="M2.7975 1.71317C2.81956 1.71317 2.83743 1.69529 2.83743 1.67323C2.83743 1.65118 2.81956 1.6333 2.7975 1.6333C2.77545 1.6333 2.75757 1.65118 2.75757 1.67323C2.75757 1.69529 2.77545 1.71317 2.7975 1.71317Z" fill="#29496C"/>
<path d="M2.9142 1.71317C2.93625 1.71317 2.95413 1.69529 2.95413 1.67323C2.95413 1.65118 2.93625 1.6333 2.9142 1.6333C2.89215 1.6333 2.87427 1.65118 2.87427 1.67323C2.87427 1.69529 2.89215 1.71317 2.9142 1.71317Z" fill="#29496C"/>
<path d="M3.03066 1.71317C3.05271 1.71317 3.07059 1.69529 3.07059 1.67323C3.07059 1.65118 3.05271 1.6333 3.03066 1.6333C3.0086 1.6333 2.99072 1.65118 2.99072 1.67323C2.99072 1.69529 3.0086 1.71317 3.03066 1.71317Z" fill="#29496C"/>
<path d="M3.14735 1.71317C3.16941 1.71317 3.18729 1.69529 3.18729 1.67323C3.18729 1.65118 3.16941 1.6333 3.14735 1.6333C3.1253 1.6333 3.10742 1.65118 3.10742 1.67323C3.10742 1.69529 3.1253 1.71317 3.14735 1.71317Z" fill="#29496C"/>
<path d="M3.26381 1.71317C3.28586 1.71317 3.30374 1.69529 3.30374 1.67323C3.30374 1.65118 3.28586 1.6333 3.26381 1.6333C3.24176 1.6333 3.22388 1.65118 3.22388 1.67323C3.22388 1.69529 3.24176 1.71317 3.26381 1.71317Z" fill="#29496C"/>
<path d="M3.38026 1.71317C3.40232 1.71317 3.4202 1.69529 3.4202 1.67323C3.4202 1.65118 3.40232 1.6333 3.38026 1.6333C3.35821 1.6333 3.34033 1.65118 3.34033 1.67323C3.34033 1.69529 3.35821 1.71317 3.38026 1.71317Z" fill="#29496C"/>
<path d="M3.49696 1.71317C3.51902 1.71317 3.5369 1.69529 3.5369 1.67323C3.5369 1.65118 3.51902 1.6333 3.49696 1.6333C3.47491 1.6333 3.45703 1.65118 3.45703 1.67323C3.45703 1.69529 3.47491 1.71317 3.49696 1.71317Z" fill="#29496C"/>
<path d="M3.61317 1.71317C3.63523 1.71317 3.65311 1.69529 3.65311 1.67323C3.65311 1.65118 3.63523 1.6333 3.61317 1.6333C3.59112 1.6333 3.57324 1.65118 3.57324 1.67323C3.57324 1.69529 3.59112 1.71317 3.61317 1.71317Z" fill="#29496C"/>
<path d="M3.73012 1.71317C3.75217 1.71317 3.77005 1.69529 3.77005 1.67323C3.77005 1.65118 3.75217 1.6333 3.73012 1.6333C3.70806 1.6333 3.69019 1.65118 3.69019 1.67323C3.69019 1.69529 3.70806 1.71317 3.73012 1.71317Z" fill="#29496C"/>
<path d="M3.84657 1.71317C3.86863 1.71317 3.88651 1.69529 3.88651 1.67323C3.88651 1.65118 3.86863 1.6333 3.84657 1.6333C3.82452 1.6333 3.80664 1.65118 3.80664 1.67323C3.80664 1.69529 3.82452 1.71317 3.84657 1.71317Z" fill="#29496C"/>
<path d="M3.96327 1.71317C3.98533 1.71317 4.0032 1.69529 4.0032 1.67323C4.0032 1.65118 3.98533 1.6333 3.96327 1.6333C3.94122 1.6333 3.92334 1.65118 3.92334 1.67323C3.92334 1.69529 3.94122 1.71317 3.96327 1.71317Z" fill="#29496C"/>
<path d="M4.07973 1.71317C4.10178 1.71317 4.11966 1.69529 4.11966 1.67323C4.11966 1.65118 4.10178 1.6333 4.07973 1.6333C4.05767 1.6333 4.03979 1.65118 4.03979 1.67323C4.03979 1.69529 4.05767 1.71317 4.07973 1.71317Z" fill="#29496C"/>
<path d="M4.19643 1.71317C4.21848 1.71317 4.23636 1.69529 4.23636 1.67323C4.23636 1.65118 4.21848 1.6333 4.19643 1.6333C4.17437 1.6333 4.15649 1.65118 4.15649 1.67323C4.15649 1.69529 4.17437 1.71317 4.19643 1.71317Z" fill="#29496C"/>
</svg>
