<svg width="32" height="30" viewBox="0 0 32 30" fill="none" xmlns="http://www.w3.org/2000/svg">
<rect width="32" height="30" rx="15" fill="#D9F0FC"/>
<g clip-path="url(#clip0_423_103)">
<path fill-rule="evenodd" clip-rule="evenodd" d="M9.66179 14.1155C10.2434 15.7632 11.2103 17.2936 12.4579 18.5413C13.7054 19.7889 15.2359 20.7557 16.8838 21.3373C18.134 21.7786 19.4261 22.0002 20.7413 22.0001C21.2672 22.0001 21.7975 21.9647 22.3299 21.8936C22.7455 21.8381 23.0439 21.4542 22.9949 21.0378L22.588 17.5728C22.5423 17.183 22.2128 16.8905 21.821 16.8905C21.8196 16.8905 21.8181 16.8905 21.8167 16.8905C21.17 16.8944 20.2644 16.8549 19.1255 16.7739C18.8742 16.7561 18.6453 16.8521 18.4821 17.0445L17.6752 17.9947C17.5768 18.1104 17.4234 18.1457 17.2844 18.0843C15.5003 17.2958 13.7032 15.499 12.9148 13.7147C12.8533 13.5756 12.8887 13.4223 13.0043 13.324L13.9545 12.517C14.147 12.3537 14.243 12.1252 14.2252 11.8735C14.1443 10.7345 14.1049 9.82902 14.1087 9.18245C14.1108 8.78859 13.8175 8.45691 13.4262 8.41089L9.96118 8.00423C9.54476 7.95553 9.1608 8.25366 9.10567 8.66929C8.85679 10.5327 9.04404 12.365 9.66179 14.1155Z" fill="#29496C"/>
</g>
<defs>
<clipPath id="clip0_423_103">
<rect width="14" height="14" fill="white" transform="translate(9 8)"/>
</clipPath>
</defs>
</svg>
