<svg width="36" height="37" viewBox="0 0 36 37" fill="none" xmlns="http://www.w3.org/2000/svg">
<rect x="0.5" y="1.11133" width="35" height="35" rx="17.5" stroke="#29496C"/>
<g clip-path="url(#clip0_333_1417)">
<path d="M20.4521 8.61133H14.5481C13.3975 8.61133 12.4644 9.54452 12.4644 10.6951V25.5276C12.4644 26.6782 13.3975 27.6113 14.5481 27.6113H20.452C21.6026 27.6113 22.5358 26.6782 22.5358 25.5276V10.6951C22.5358 9.54452 21.603 8.61133 20.4521 8.61133ZM19.5005 9.69662C19.5786 9.69662 19.6415 9.75985 19.6415 9.83765C19.6415 9.91577 19.5783 9.97863 19.5005 9.97863C19.4224 9.97863 19.3595 9.9154 19.3595 9.83765C19.3595 9.75985 19.4227 9.69662 19.5005 9.69662ZM19.5005 10.1634C19.5786 10.1634 19.6415 10.2266 19.6415 10.3044C19.6415 10.3822 19.5783 10.4454 19.5005 10.4454C19.4224 10.4454 19.3595 10.3822 19.3595 10.3044C19.3595 10.2266 19.4227 10.1634 19.5005 10.1634ZM16.0276 9.97409H18.9952C19.1001 9.97409 19.1848 10.0588 19.1848 10.1633C19.1848 10.2682 19.1001 10.353 18.9952 10.353H16.0276C15.9227 10.353 15.838 10.2682 15.838 10.1633C15.838 10.0588 15.9227 9.97409 16.0276 9.97409ZM18.3103 25.5998C18.3103 25.9833 17.9992 26.2944 17.6157 26.2944H17.3553C16.9718 26.2944 16.6607 25.9833 16.6607 25.5998V25.3105C16.6607 24.9271 16.9718 24.616 17.3553 24.616H17.6157C17.9992 24.616 18.3103 24.9271 18.3103 25.3105V25.5998ZM21.5228 23.7185H13.2746V12.692H21.5228V23.7185Z" fill="#29496C"/>
<path d="M16.303 10.2217C16.3352 10.2217 16.3614 10.1956 16.3614 10.1634C16.3614 10.1311 16.3352 10.105 16.303 10.105C16.2708 10.105 16.2446 10.1311 16.2446 10.1634C16.2446 10.1956 16.2708 10.2217 16.303 10.2217Z" fill="#29496C"/>
<path d="M16.4735 10.2217C16.5057 10.2217 16.5319 10.1956 16.5319 10.1634C16.5319 10.1311 16.5057 10.105 16.4735 10.105C16.4413 10.105 16.4151 10.1311 16.4151 10.1634C16.4151 10.1956 16.4413 10.2217 16.4735 10.2217Z" fill="#29496C"/>
<path d="M16.644 10.2217C16.6763 10.2217 16.7024 10.1956 16.7024 10.1634C16.7024 10.1311 16.6763 10.105 16.644 10.105C16.6118 10.105 16.5857 10.1311 16.5857 10.1634C16.5857 10.1956 16.6118 10.2217 16.644 10.2217Z" fill="#29496C"/>
<path d="M16.8142 10.2217C16.8464 10.2217 16.8726 10.1956 16.8726 10.1634C16.8726 10.1311 16.8464 10.105 16.8142 10.105C16.782 10.105 16.7558 10.1311 16.7558 10.1634C16.7558 10.1956 16.782 10.2217 16.8142 10.2217Z" fill="#29496C"/>
<path d="M16.9847 10.2217C17.0169 10.2217 17.0431 10.1956 17.0431 10.1634C17.0431 10.1311 17.0169 10.105 16.9847 10.105C16.9525 10.105 16.9264 10.1311 16.9264 10.1634C16.9264 10.1956 16.9525 10.2217 16.9847 10.2217Z" fill="#29496C"/>
<path d="M17.1549 10.2217C17.1871 10.2217 17.2133 10.1956 17.2133 10.1634C17.2133 10.1311 17.1871 10.105 17.1549 10.105C17.1227 10.105 17.0965 10.1311 17.0965 10.1634C17.0965 10.1956 17.1227 10.2217 17.1549 10.2217Z" fill="#29496C"/>
<path d="M17.3251 10.2217C17.3573 10.2217 17.3834 10.1956 17.3834 10.1634C17.3834 10.1311 17.3573 10.105 17.3251 10.105C17.2928 10.105 17.2667 10.1311 17.2667 10.1634C17.2667 10.1956 17.2928 10.2217 17.3251 10.2217Z" fill="#29496C"/>
<path d="M17.4956 10.2217C17.5278 10.2217 17.554 10.1956 17.554 10.1634C17.554 10.1311 17.5278 10.105 17.4956 10.105C17.4634 10.105 17.4372 10.1311 17.4372 10.1634C17.4372 10.1956 17.4634 10.2217 17.4956 10.2217Z" fill="#29496C"/>
<path d="M17.6658 10.2217C17.698 10.2217 17.7241 10.1956 17.7241 10.1634C17.7241 10.1311 17.698 10.105 17.6658 10.105C17.6335 10.105 17.6074 10.1311 17.6074 10.1634C17.6074 10.1956 17.6335 10.2217 17.6658 10.2217Z" fill="#29496C"/>
<path d="M17.8366 10.2217C17.8688 10.2217 17.895 10.1956 17.895 10.1634C17.895 10.1311 17.8688 10.105 17.8366 10.105C17.8044 10.105 17.7782 10.1311 17.7782 10.1634C17.7782 10.1956 17.8044 10.2217 17.8366 10.2217Z" fill="#29496C"/>
<path d="M18.0068 10.2217C18.039 10.2217 18.0652 10.1956 18.0652 10.1634C18.0652 10.1311 18.039 10.105 18.0068 10.105C17.9746 10.105 17.9485 10.1311 17.9485 10.1634C17.9485 10.1956 17.9746 10.2217 18.0068 10.2217Z" fill="#29496C"/>
<path d="M18.1773 10.2217C18.2095 10.2217 18.2357 10.1956 18.2357 10.1634C18.2357 10.1311 18.2095 10.105 18.1773 10.105C18.1451 10.105 18.1189 10.1311 18.1189 10.1634C18.1189 10.1956 18.1451 10.2217 18.1773 10.2217Z" fill="#29496C"/>
<path d="M18.3475 10.2217C18.3797 10.2217 18.4059 10.1956 18.4059 10.1634C18.4059 10.1311 18.3797 10.105 18.3475 10.105C18.3153 10.105 18.2892 10.1311 18.2892 10.1634C18.2892 10.1956 18.3153 10.2217 18.3475 10.2217Z" fill="#29496C"/>
<path d="M18.518 10.2217C18.5502 10.2217 18.5764 10.1956 18.5764 10.1634C18.5764 10.1311 18.5502 10.105 18.518 10.105C18.4858 10.105 18.4596 10.1311 18.4596 10.1634C18.4596 10.1956 18.4858 10.2217 18.518 10.2217Z" fill="#29496C"/>
</g>
<defs>
<clipPath id="clip0_333_1417">
<rect width="19" height="19" fill="white" transform="translate(8 8.61133)"/>
</clipPath>
</defs>
</svg>
