<svg width="20" height="21" viewBox="0 0 20 21" fill="none" xmlns="http://www.w3.org/2000/svg">
<path d="M3.33333 16.778C1.495 16.778 0 15.283 0 13.4447V3.44466C0 1.60633 1.495 0.111328 3.33333 0.111328C5.17167 0.111328 6.66667 1.60633 6.66667 3.44466V13.4447C6.66667 15.283 5.17167 16.778 3.33333 16.778ZM15.8333 1.77799H8.0475C8.2325 2.29966 8.33333 2.86049 8.33333 3.44466V13.4447C8.33333 16.2022 6.09083 18.4447 3.33333 18.4447C2.17333 18.4447 1.105 18.048 0.255833 17.383C0.8425 18.9738 2.37417 20.1113 4.16667 20.1113H15.8333C18.1308 20.1113 20 18.2422 20 15.9447V5.94466C20 3.64716 18.1308 1.77799 15.8333 1.77799ZM10.8333 16.778C10.3733 16.778 10 16.4047 10 15.9447C10 15.4847 10.3733 15.1113 10.8333 15.1113C11.2933 15.1113 11.6667 15.4847 11.6667 15.9447C11.6667 16.4047 11.2933 16.778 10.8333 16.778ZM10.8333 13.4447C10.3733 13.4447 10 13.0713 10 12.6113C10 12.1513 10.3733 11.778 10.8333 11.778C11.2933 11.778 11.6667 12.1513 11.6667 12.6113C11.6667 13.0713 11.2933 13.4447 10.8333 13.4447ZM10.8333 10.1113C10.3733 10.1113 10 9.73799 10 9.27799C10 8.818 10.3733 8.44466 10.8333 8.44466C11.2933 8.44466 11.6667 8.818 11.6667 9.27799C11.6667 9.73799 11.2933 10.1113 10.8333 10.1113ZM14.1667 16.778C13.7067 16.778 13.3333 16.4047 13.3333 15.9447C13.3333 15.4847 13.7067 15.1113 14.1667 15.1113C14.6267 15.1113 15 15.4847 15 15.9447C15 16.4047 14.6267 16.778 14.1667 16.778ZM14.1667 13.4447C13.7067 13.4447 13.3333 13.0713 13.3333 12.6113C13.3333 12.1513 13.7067 11.778 14.1667 11.778C14.6267 11.778 15 12.1513 15 12.6113C15 13.0713 14.6267 13.4447 14.1667 13.4447ZM14.1667 10.1113C13.7067 10.1113 13.3333 9.73799 13.3333 9.27799C13.3333 8.818 13.7067 8.44466 14.1667 8.44466C14.6267 8.44466 15 8.818 15 9.27799C15 9.73799 14.6267 10.1113 14.1667 10.1113ZM17.5 16.778C17.04 16.778 16.6667 16.4047 16.6667 15.9447C16.6667 15.4847 17.04 15.1113 17.5 15.1113C17.96 15.1113 18.3333 15.4847 18.3333 15.9447C18.3333 16.4047 17.96 16.778 17.5 16.778ZM17.5 13.4447C17.04 13.4447 16.6667 13.0713 16.6667 12.6113C16.6667 12.1513 17.04 11.778 17.5 11.778C17.96 11.778 18.3333 12.1513 18.3333 12.6113C18.3333 13.0713 17.96 13.4447 17.5 13.4447ZM17.5 10.1113C17.04 10.1113 16.6667 9.73799 16.6667 9.27799C16.6667 8.818 17.04 8.44466 17.5 8.44466C17.96 8.44466 18.3333 8.818 18.3333 9.27799C18.3333 9.73799 17.96 10.1113 17.5 10.1113ZM13.3333 5.94466C12.8733 5.94466 12.5 5.57133 12.5 5.11133V3.44466H15.8333C17.2117 3.44466 18.3333 4.56633 18.3333 5.94466H13.3333Z" fill="#29496C"/>
</svg>
