<svg width="13" height="24" viewBox="0 0 13 24" fill="none" xmlns="http://www.w3.org/2000/svg">
<path d="M10.0734 0.111328H2.92648C1.53366 0.111328 0.404053 1.24098 0.404053 2.63376V20.5889C0.404053 21.9817 1.53366 23.1113 2.92648 23.1113H10.0734C11.4662 23.1113 12.5958 21.9817 12.5958 20.5889V2.63376C12.5958 1.24098 11.4666 0.111328 10.0734 0.111328ZM8.9215 1.42511C9.01606 1.42511 9.09221 1.50165 9.09221 1.59582C9.09221 1.69038 9.01567 1.76649 8.9215 1.76649C8.82693 1.76649 8.75078 1.68994 8.75078 1.59582C8.75078 1.50165 8.82732 1.42511 8.9215 1.42511ZM8.9215 1.99013C9.01606 1.99013 9.09221 2.06667 9.09221 2.1608C9.09221 2.25497 9.01567 2.33151 8.9215 2.33151C8.82693 2.33151 8.75078 2.25497 8.75078 2.1608C8.75078 2.06667 8.82732 1.99013 8.9215 1.99013ZM4.71744 1.76099H8.30982C8.43679 1.76099 8.53936 1.86356 8.53936 1.99009C8.53936 2.11705 8.43679 2.21962 8.30982 2.21962H4.71744C4.59048 2.21962 4.48791 2.11705 4.48791 1.99009C4.48791 1.86356 4.59048 1.76099 4.71744 1.76099ZM7.48075 20.6764C7.48075 21.1405 7.10407 21.5172 6.63994 21.5172H6.32463C5.86046 21.5172 5.48382 21.1405 5.48382 20.6764V20.3262C5.48382 19.862 5.86046 19.4853 6.32463 19.4853H6.63994C7.10407 19.4853 7.48075 19.862 7.48075 20.3262V20.6764ZM11.3695 18.399H1.38489V5.05108H11.3695V18.399Z" fill="white"/>
<path d="M5.05087 2.06073C5.08989 2.06073 5.12152 2.0291 5.12152 1.99008C5.12152 1.95106 5.08989 1.91943 5.05087 1.91943C5.01186 1.91943 4.98022 1.95106 4.98022 1.99008C4.98022 2.0291 5.01186 2.06073 5.05087 2.06073Z" fill="white"/>
<path d="M5.25717 2.06073C5.29619 2.06073 5.32782 2.0291 5.32782 1.99008C5.32782 1.95106 5.29619 1.91943 5.25717 1.91943C5.21815 1.91943 5.18652 1.95106 5.18652 1.99008C5.18652 2.0291 5.21815 2.06073 5.25717 2.06073Z" fill="white"/>
<path d="M5.46372 2.06073C5.50274 2.06073 5.53437 2.0291 5.53437 1.99008C5.53437 1.95106 5.50274 1.91943 5.46372 1.91943C5.4247 1.91943 5.39307 1.95106 5.39307 1.99008C5.39307 2.0291 5.4247 2.06073 5.46372 2.06073Z" fill="white"/>
<path d="M5.66977 2.06073C5.70879 2.06073 5.74042 2.0291 5.74042 1.99008C5.74042 1.95106 5.70879 1.91943 5.66977 1.91943C5.63075 1.91943 5.59912 1.95106 5.59912 1.99008C5.59912 2.0291 5.63075 2.06073 5.66977 2.06073Z" fill="white"/>
<path d="M5.87607 2.06073C5.91509 2.06073 5.94672 2.0291 5.94672 1.99008C5.94672 1.95106 5.91509 1.91943 5.87607 1.91943C5.83705 1.91943 5.80542 1.95106 5.80542 1.99008C5.80542 2.0291 5.83705 2.06073 5.87607 2.06073Z" fill="white"/>
<path d="M6.08212 2.06073C6.12114 2.06073 6.15277 2.0291 6.15277 1.99008C6.15277 1.95106 6.12114 1.91943 6.08212 1.91943C6.04311 1.91943 6.01147 1.95106 6.01147 1.99008C6.01147 2.0291 6.04311 2.06073 6.08212 2.06073Z" fill="white"/>
<path d="M6.28793 2.06073C6.32695 2.06073 6.35858 2.0291 6.35858 1.99008C6.35858 1.95106 6.32695 1.91943 6.28793 1.91943C6.24892 1.91943 6.21729 1.95106 6.21729 1.99008C6.21729 2.0291 6.24892 2.06073 6.28793 2.06073Z" fill="white"/>
<path d="M6.49448 2.06073C6.5335 2.06073 6.56513 2.0291 6.56513 1.99008C6.56513 1.95106 6.5335 1.91943 6.49448 1.91943C6.45546 1.91943 6.42383 1.95106 6.42383 1.99008C6.42383 2.0291 6.45546 2.06073 6.49448 2.06073Z" fill="white"/>
<path d="M6.70053 2.06073C6.73955 2.06073 6.77118 2.0291 6.77118 1.99008C6.77118 1.95106 6.73955 1.91943 6.70053 1.91943C6.66151 1.91943 6.62988 1.95106 6.62988 1.99008C6.62988 2.0291 6.66151 2.06073 6.70053 2.06073Z" fill="white"/>
<path d="M6.90732 2.06073C6.94634 2.06073 6.97797 2.0291 6.97797 1.99008C6.97797 1.95106 6.94634 1.91943 6.90732 1.91943C6.8683 1.91943 6.83667 1.95106 6.83667 1.99008C6.83667 2.0291 6.8683 2.06073 6.90732 2.06073Z" fill="white"/>
<path d="M7.11337 2.06073C7.15239 2.06073 7.18402 2.0291 7.18402 1.99008C7.18402 1.95106 7.15239 1.91943 7.11337 1.91943C7.07436 1.91943 7.04272 1.95106 7.04272 1.99008C7.04272 2.0291 7.07436 2.06073 7.11337 2.06073Z" fill="white"/>
<path d="M7.31967 2.06073C7.35869 2.06073 7.39032 2.0291 7.39032 1.99008C7.39032 1.95106 7.35869 1.91943 7.31967 1.91943C7.28065 1.91943 7.24902 1.95106 7.24902 1.99008C7.24902 2.0291 7.28065 2.06073 7.31967 2.06073Z" fill="white"/>
<path d="M7.52573 2.06073C7.56475 2.06073 7.59638 2.0291 7.59638 1.99008C7.59638 1.95106 7.56475 1.91943 7.52573 1.91943C7.48671 1.91943 7.45508 1.95106 7.45508 1.99008C7.45508 2.0291 7.48671 2.06073 7.52573 2.06073Z" fill="white"/>
<path d="M7.73203 2.06073C7.77105 2.06073 7.80268 2.0291 7.80268 1.99008C7.80268 1.95106 7.77105 1.91943 7.73203 1.91943C7.69301 1.91943 7.66138 1.95106 7.66138 1.99008C7.66138 2.0291 7.69301 2.06073 7.73203 2.06073Z" fill="white"/>
</svg>
