<svg width="16" height="16" viewBox="0 0 16 16" fill="none" xmlns="http://www.w3.org/2000/svg">
<path fill-rule="evenodd" clip-rule="evenodd" d="M7.65811 2.35889C4.73092 2.35889 2.35897 4.72896 2.35897 7.65133C2.35897 10.5737 4.73092 12.9438 7.65811 12.9438C9.11848 12.9438 10.4399 12.3545 11.3989 11.3999C12.3622 10.441 12.9573 9.11603 12.9573 7.65133C12.9573 4.72896 10.5853 2.35889 7.65811 2.35889ZM1.33333 7.65133C1.33333 4.16139 4.16559 1.33325 7.65811 1.33325C11.1506 1.33325 13.9829 4.16139 13.9829 7.65133C13.9829 9.2149 13.4138 10.6464 12.4722 11.7493L14.5162 13.7909C14.7166 13.9911 14.7168 14.3158 14.5167 14.5162C14.3165 14.7166 13.9918 14.7167 13.7914 14.5166L11.7455 12.473C10.6434 13.4061 9.21616 13.9694 7.65811 13.9694C4.16559 13.9694 1.33333 11.1413 1.33333 7.65133Z" fill="#29496C"/>
</svg>
